<svg xmlns="http://www.w3.org/2000/svg" width="30" height="30" viewBox="0 0 30 30"><g><g><g/><g><path fill="#2f3035" d="M17.416 29.8c-.125.02-.25.04-.376.056"/></g><g><path fill="#2f3035" d="M17.72 29.75l-.18.031"/></g><g><path fill="#2f3035" d="M16.711 29.9c-.146.016-.293.031-.441.043"/></g><g><path fill="#2f3035" d="M16.991 29.87c-.07.01-.14.018-.211.026"/></g><g><path fill="#2f3035" d="M18.128 29.67l-.158.033"/></g><g><path fill="#2f3035" d="M19.138 29.42l-.128.035"/></g><g><path fill="#2f3035" d="M18.83 29.5l-.14.036"/></g><g><path fill="#2f3035" d="M18.438 29.6l-.148.033"/></g><g><path fill="#2f3035" d="M16.257 29.95l-.237.018"/></g><g><path fill="#2f3035" d="M30 15c0-8.283-6.717-15-15-15C6.717 0 0 6.717 0 15c0 8.283 6.717 15 15 15l.264-.003V18.32H12.04v-3.756h3.223V11.8c0-3.205 1.956-4.95 4.816-4.95 1.369 0 2.546.103 2.889.148v3.35h-1.972c-1.555 0-1.857.74-1.857 1.824v2.392h3.72l-.485 3.756H19.14v11.1C25.41 27.623 30 21.848 30 15z"/></g><g><path fill="#2f3035" d="M15.99 29.97c-.156.01-.313.018-.47.023"/></g><g><path fill="#2f3035" d="M15.509 29.99l-.249.006"/></g></g></g></svg>