<svg width="16" height="19" viewBox="0 0 16 19" fill="none" xmlns="http://www.w3.org/2000/svg">
<path d="M2.67725 9.60395C2.67725 6.73369 2.67725 3.86344 2.67725 0.801828C5.48023 0.801828 8.01809 0.68702 10.5559 0.840101C13.2074 0.993181 15.2149 3.51901 15.1392 6.27446C15.0634 8.95337 13.018 11.2878 10.3665 11.4027C8.47263 11.5175 6.61658 11.4409 4.64692 11.4409L2.67725 9.60395ZM4.64692 2.56226C4.64692 5.01154 4.64692 7.30775 4.64692 9.6805C5.13933 9.71877 6.61659 9.6805 6.99537 9.6805C8.05596 9.6805 9.53322 9.71876 10.3665 9.60395C12.1468 9.4126 13.4347 7.84353 13.3968 6.08311C13.3589 4.24614 11.9953 2.67707 10.1393 2.56226C8.35898 2.48571 6.54083 2.56226 4.64692 2.56226Z" fill="#1C62CD"/>
<path d="M8.24571 11.8608C7.67754 11.8608 7.07148 11.8608 6.46543 11.8608C5.85938 11.8608 5.25333 11.8608 4.64728 11.8608V11.0954C5.25333 11.0954 5.85938 11.0954 6.46543 11.0954C7.79117 11.0954 9.07905 11.1337 10.3669 11.0572C12.7911 10.9041 14.7229 8.83751 14.7608 6.27341C14.8365 3.63278 12.9047 1.37484 10.5184 1.22176C8.77601 1.10695 7.03361 1.14521 5.21545 1.18348C4.49577 1.18348 3.77608 1.22176 3.05639 1.22176V9.64118H2.29883V0.456354H2.67761C3.54881 0.456354 4.38213 0.456351 5.21545 0.418081C7.07149 0.379811 8.81389 0.379814 10.5942 0.456354C13.3972 0.609434 15.5941 3.25008 15.5562 6.27341C15.4804 9.22021 13.2456 11.6312 10.4426 11.7843C9.68508 11.8608 8.9654 11.8608 8.24571 11.8608ZM8.24571 10.0622C7.86693 10.0622 7.45027 10.0622 6.99574 10.0622C6.84422 10.0622 6.54121 10.0622 6.2003 10.0622C5.59425 10.0622 4.91244 10.0622 4.60941 10.0622L4.2685 10.0239V2.14024H4.64728C5.25333 2.14024 5.82152 2.14024 6.38969 2.14024C7.67755 2.14024 8.92753 2.10197 10.1775 2.17851C12.1851 2.29332 13.7759 4.01548 13.8138 6.08206C13.8517 8.07211 12.3366 9.79426 10.4426 9.98561C9.95023 10.0621 9.19267 10.0622 8.24571 10.0622ZM6.84421 9.29675C6.91997 9.29675 6.95786 9.29675 6.99574 9.29675C8.58662 9.33502 9.68508 9.29675 10.329 9.25848C11.8441 9.1054 13.0563 7.72767 13.0184 6.12032C13.0184 4.43644 11.7305 3.05872 10.1018 2.98218C8.88965 2.90564 7.67755 2.94391 6.38969 2.94391C5.93515 2.94391 5.4806 2.94391 5.02606 2.94391V9.29675C5.36697 9.29675 5.82152 9.29675 6.2003 9.29675C6.46545 9.29675 6.6927 9.29675 6.84421 9.29675Z" fill="#1C62CD"/>
<path d="M5.32865 9.68079H0.972656V11.4795H5.32865V9.68079Z" fill="#1C62CD"/>
<path d="M5.6702 11.8224H0.556641V9.2583H5.6702V11.8224ZM1.35207 11.057H4.9505V10.0237H1.35207V11.057Z" fill="#1C62CD"/>
<path d="M8.85134 13.2407H0.972656V15.0394H8.85134V13.2407Z" fill="#1C62CD"/>
<path d="M9.23 15.4201H0.59375V12.856H9.23V15.4201ZM1.35131 14.6547H8.47244V13.6214H1.35131V14.6547Z" fill="#1C62CD"/>
<path d="M4.64692 8.57092H2.67725V18.5977H4.64692V8.57092Z" fill="#1C62CD"/>
<path d="M5.02606 18.9791H2.29883V8.18689H5.02606V18.9791ZM3.05639 18.2136H4.2685V8.95229H3.05639V18.2136Z" fill="#1C62CD"/>
</svg>
