<svg width="8" height="11" viewBox="0 0 8 11" fill="none" xmlns="http://www.w3.org/2000/svg">
<mask id="path-1-inside-1" fill="white">
<path fill-rule="evenodd" clip-rule="evenodd" d="M3.1514 6.49152H4.10085H4.10096C4.48474 6.49152 4.86852 6.49152 5.2725 6.45179C6.76738 6.37234 7.95923 5.12089 7.99963 3.59134C8.01983 2.02207 6.84818 0.651432 5.35331 0.571975C4.40387 0.532247 3.47462 0.532246 2.48477 0.55211C2.04035 0.571974 1.59593 0.571975 1.13131 0.571975H0.929297V4.58458H0.929199V5.14081H0V6.47172H0.929199V7.00815H0.0200195V8.33906H0.929199V10.1863H2.38367V8.33906H4.62585V7.00815H2.38367V6.49152H3.1514ZM2.72713 5.16062H3.01001H3.35341H3.43422C4.28266 5.18048 4.86849 5.16062 5.2119 5.14075C6.01994 5.06129 6.66638 4.34618 6.64618 3.51188C6.64618 2.63785 5.95934 1.92275 5.0907 1.88302C4.6077 1.85333 4.12469 1.85692 3.62484 1.86063C3.45571 1.86188 3.28465 1.86315 3.11101 1.86315H2.38377V5.14081H2.72713V5.16062Z"/>
</mask>
<path fill-rule="evenodd" clip-rule="evenodd" d="M3.1514 6.49152H4.10085H4.10096C4.48474 6.49152 4.86852 6.49152 5.2725 6.45179C6.76738 6.37234 7.95923 5.12089 7.99963 3.59134C8.01983 2.02207 6.84818 0.651432 5.35331 0.571975C4.40387 0.532247 3.47462 0.532246 2.48477 0.55211C2.04035 0.571974 1.59593 0.571975 1.13131 0.571975H0.929297V4.58458H0.929199V5.14081H0V6.47172H0.929199V7.00815H0.0200195V8.33906H0.929199V10.1863H2.38367V8.33906H4.62585V7.00815H2.38367V6.49152H3.1514ZM2.72713 5.16062H3.01001H3.35341H3.43422C4.28266 5.18048 4.86849 5.16062 5.2119 5.14075C6.01994 5.06129 6.66638 4.34618 6.64618 3.51188C6.64618 2.63785 5.95934 1.92275 5.0907 1.88302C4.6077 1.85333 4.12469 1.85692 3.62484 1.86063C3.45571 1.86188 3.28465 1.86315 3.11101 1.86315H2.38377V5.14081H2.72713V5.16062Z" fill="#C4C4C4"/>
<path d="M5.2725 6.45179L5.25922 6.20189L5.24804 6.20299L5.2725 6.45179ZM7.99963 3.59134L8.24957 3.59795L8.24961 3.59456L7.99963 3.59134ZM5.35331 0.571975L5.36658 0.322312L5.36376 0.322194L5.35331 0.571975ZM2.48477 0.55211L2.47976 0.302085L2.47361 0.302359L2.48477 0.55211ZM0.929297 0.571975V0.321975H0.679297V0.571975H0.929297ZM0.929297 4.58458V4.83458H1.1793V4.58458H0.929297ZM0.929199 4.58458V4.33458H0.679199V4.58458H0.929199ZM0.929199 5.14081V5.39081H1.1792V5.14081H0.929199ZM0 5.14081V4.89081H-0.25V5.14081H0ZM0 6.47172H-0.25V6.72172H0V6.47172ZM0.929199 6.47172H1.1792V6.22172H0.929199V6.47172ZM0.929199 7.00815V7.25815H1.1792V7.00815H0.929199ZM0.0200195 7.00815V6.75815H-0.22998V7.00815H0.0200195ZM0.0200195 8.33906H-0.22998V8.58906H0.0200195V8.33906ZM0.929199 8.33906H1.1792V8.08906H0.929199V8.33906ZM0.929199 10.1863H0.679199V10.4363H0.929199V10.1863ZM2.38367 10.1863V10.4363H2.63367V10.1863H2.38367ZM2.38367 8.33906V8.08906H2.13367V8.33906H2.38367ZM4.62585 8.33906V8.58906H4.87585V8.33906H4.62585ZM4.62585 7.00815H4.87585V6.75815H4.62585V7.00815ZM2.38367 7.00815H2.13367V7.25815H2.38367V7.00815ZM2.38367 6.49152V6.24152H2.13367V6.49152H2.38367ZM2.72713 5.16062H2.47713V5.41062H2.72713V5.16062ZM3.43422 5.16062L3.44007 4.91062H3.43422V5.16062ZM5.2119 5.14075L5.22635 5.39054L5.23637 5.38955L5.2119 5.14075ZM6.64618 3.51188L6.39611 3.51188L6.39625 3.51793L6.64618 3.51188ZM5.0907 1.88302L5.07537 2.13258L5.07928 2.13276L5.0907 1.88302ZM3.62484 1.86063L3.62669 2.11062L3.62669 2.11062L3.62484 1.86063ZM2.38377 1.86315V1.61315H2.13377V1.86315H2.38377ZM2.38377 5.14081H2.13377V5.39081H2.38377V5.14081ZM2.72713 5.14081H2.97713V4.89081H2.72713V5.14081ZM4.10085 6.24152H3.1514V6.74152H4.10085V6.24152ZM4.10096 6.24152H4.10085V6.74152H4.10096V6.24152ZM5.24804 6.20299C4.85812 6.24134 4.48628 6.24152 4.10096 6.24152V6.74152C4.4832 6.74152 4.87893 6.7417 5.29697 6.70059L5.24804 6.20299ZM7.74972 3.58474C7.71263 4.98883 6.61911 6.12986 5.25923 6.20215L5.28577 6.70144C6.91564 6.61481 8.20583 5.25295 8.24955 3.59794L7.74972 3.58474ZM5.34004 0.821623C6.68438 0.893079 7.76835 2.13577 7.74965 3.58813L8.24961 3.59456C8.27132 1.90837 7.01199 0.409786 5.36658 0.322328L5.34004 0.821623ZM2.48979 0.80206C3.47653 0.782258 4.40028 0.782316 5.34286 0.821757L5.36376 0.322194C4.40746 0.282178 3.47271 0.282234 2.47976 0.30216L2.48979 0.80206ZM1.13131 0.821975C1.59494 0.821975 2.04499 0.822017 2.49594 0.801861L2.47361 0.302359C2.03572 0.321932 1.59692 0.321975 1.13131 0.321975V0.821975ZM0.929297 0.821975H1.13131V0.321975H0.929297V0.821975ZM1.1793 4.58458V0.571975H0.679297V4.58458H1.1793ZM0.929199 4.83458H0.929297V4.33458H0.929199V4.83458ZM1.1792 5.14081V4.58458H0.679199V5.14081H1.1792ZM0 5.39081H0.929199V4.89081H0V5.39081ZM0.25 6.47172V5.14081H-0.25V6.47172H0.25ZM0.929199 6.22172H0V6.72172H0.929199V6.22172ZM1.1792 7.00815V6.47172H0.679199V7.00815H1.1792ZM0.0200195 7.25815H0.929199V6.75815H0.0200195V7.25815ZM0.27002 8.33906V7.00815H-0.22998V8.33906H0.27002ZM0.929199 8.08906H0.0200195V8.58906H0.929199V8.08906ZM1.1792 10.1863V8.33906H0.679199V10.1863H1.1792ZM2.38367 9.93629H0.929199V10.4363H2.38367V9.93629ZM2.13367 8.33906V10.1863H2.63367V8.33906H2.13367ZM4.62585 8.08906H2.38367V8.58906H4.62585V8.08906ZM4.37585 7.00815V8.33906H4.87585V7.00815H4.37585ZM2.38367 7.25815H4.62585V6.75815H2.38367V7.25815ZM2.13367 6.49152V7.00815H2.63367V6.49152H2.13367ZM3.1514 6.24152H2.38367V6.74152H3.1514V6.24152ZM3.01001 4.91062H2.72713V5.41062H3.01001V4.91062ZM3.35341 4.91062H3.01001V5.41062H3.35341V4.91062ZM3.43422 4.91062H3.35341V5.41062H3.43422V4.91062ZM5.19747 4.89117C4.86093 4.91064 4.28187 4.93039 3.44007 4.91069L3.42837 5.41055C4.28345 5.43057 4.87604 5.4106 5.22634 5.39033L5.19747 4.89117ZM6.39625 3.51793C6.41327 4.22059 5.86595 4.82523 5.18744 4.89195L5.23637 5.38955C6.17394 5.29736 6.91949 4.47177 6.89611 3.50583L6.39625 3.51793ZM5.07928 2.13276C5.81475 2.16639 6.39618 2.7718 6.39618 3.51188H6.89618C6.89618 2.50391 6.10394 1.6791 5.10212 1.63328L5.07928 2.13276ZM3.62669 2.11062C4.12805 2.1069 4.6024 2.10348 5.07537 2.13255L5.10604 1.63349C4.61299 1.60319 4.12134 1.60693 3.62298 1.61063L3.62669 2.11062ZM3.11101 2.11315C3.28573 2.11315 3.4577 2.11187 3.62669 2.11062L3.62298 1.61063C3.45371 1.61189 3.28357 1.61315 3.11101 1.61315V2.11315ZM2.38377 2.11315H3.11101V1.61315H2.38377V2.11315ZM2.63377 5.14081V1.86315H2.13377V5.14081H2.63377ZM2.72713 4.89081H2.38377V5.39081H2.72713V4.89081ZM2.97713 5.16062V5.14081H2.47713V5.16062H2.97713Z" fill="white" mask="url(#path-1-inside-1)"/>
</svg>
